<?xml version="1.0" encoding="UTF-8" standalone="no"?>
<!-- Generator: Adobe Illustrator 19.0.0, SVG Export Plug-In . SVG Version: 6.00 Build 0)  -->

<svg
   xmlns:dc="http://purl.org/dc/elements/1.1/"
   xmlns:cc="http://creativecommons.org/ns#"
   xmlns:rdf="http://www.w3.org/1999/02/22-rdf-syntax-ns#"
   xmlns:svg="http://www.w3.org/2000/svg"
   xmlns="http://www.w3.org/2000/svg"
   xmlns:sodipodi="http://sodipodi.sourceforge.net/DTD/sodipodi-0.dtd"
   xmlns:inkscape="http://www.inkscape.org/namespaces/inkscape"
   version="1.1"
   id="Capa_1"
   x="0px"
   y="0px"
   viewBox="0 0 2514.9438 553.7215"
   xml:space="preserve"
   sodipodi:docname="tools.svg"
   width="2514.9438"
   height="553.7215"
   inkscape:version="0.92.5 (2060ec1f9f, 2020-04-08)"><metadata
   id="metadata79"><rdf:RDF><cc:Work
       rdf:about=""><dc:format>image/svg+xml</dc:format><dc:type
         rdf:resource="http://purl.org/dc/dcmitype/StillImage" /></cc:Work></rdf:RDF></metadata><defs
   id="defs77" /><sodipodi:namedview
   pagecolor="#ffffff"
   bordercolor="#666666"
   borderopacity="1"
   objecttolerance="10"
   gridtolerance="10"
   guidetolerance="10"
   inkscape:pageopacity="0"
   inkscape:pageshadow="2"
   inkscape:window-width="1920"
   inkscape:window-height="1135"
   id="namedview75"
   showgrid="false"
   inkscape:zoom="0.4609375"
   inkscape:cx="768.50306"
   inkscape:cy="297.72149"
   inkscape:window-x="0"
   inkscape:window-y="0"
   inkscape:window-maximized="1"
   inkscape:current-layer="Capa_1" />
<g
   id="g6"
   transform="translate(-2.45)">
	<g
   id="g4">
		<path
   d="m 340.081,145.983 c -4.2,0 -7.604,3.405 -7.604,7.604 v 199.991 c 0,4.199 3.404,7.604 7.604,7.604 4.2,0 7.604,-3.405 7.604,-7.604 V 153.587 c 0,-4.2 -3.403,-7.604 -7.604,-7.604 z"
   id="path2"
   inkscape:connector-curvature="0" />
	</g>
</g>
<g
   id="g12"
   transform="translate(-2.45)">
	<g
   id="g10">
		<path
   d="m 507.709,348.617 -21.61,-25.11 13.423,-30.289 c 1.189,-2.685 0.727,-5.814 -1.189,-8.041 l -21.61,-25.112 13.422,-30.286 c 1.19,-2.685 0.728,-5.815 -1.188,-8.041 l -21.61,-25.108 13.423,-30.29 c 1.189,-2.685 0.727,-5.815 -1.189,-8.041 l -21.61,-25.113 13.422,-30.292 c 1.189,-2.685 0.727,-5.815 -1.189,-8.04 l -21.61,-25.113 13.422,-30.295 c 1.189,-2.685 0.727,-5.815 -1.188,-8.04 L 436.074,2.642 C 434.628,0.966 432.523,0 430.308,0 h -90.227 c -4.2,0 -7.604,3.405 -7.604,7.604 v 120.634 c 0,4.199 3.404,7.604 7.604,7.604 4.2,0 7.604,-3.405 7.604,-7.604 V 15.208 h 79.135 l 19.336,22.473 -13.422,30.296 c -1.189,2.685 -0.727,5.815 1.189,8.04 l 21.61,25.113 -13.422,30.292 c -1.189,2.685 -0.727,5.815 1.189,8.04 l 21.61,25.112 -13.423,30.29 c -1.189,2.685 -0.727,5.815 1.189,8.041 l 21.61,25.108 -13.422,30.285 c -1.19,2.685 -0.728,5.815 1.188,8.041 l 21.61,25.112 -13.423,30.29 c -1.189,2.685 -0.727,5.815 1.189,8.041 l 24.747,28.754 c 1.504,1.748 3.629,2.643 5.767,2.643 1.756,0 3.522,-0.605 4.958,-1.84 3.19,-2.738 3.548,-7.539 0.809,-10.722 z"
   id="path8"
   inkscape:connector-curvature="0" />
	</g>
</g>
<g
   id="g18"
   transform="translate(-2.45)">
	<g
   id="g16">
		<path
   d="M 501.783,365.448 H 324.872 c -4.2,0 -7.604,3.405 -7.604,7.604 v 84.55 c 0,29.995 24.403,54.398 54.398,54.398 h 83.323 c 29.995,0 54.398,-24.403 54.398,-54.398 v -84.55 c 0,-4.199 -3.404,-7.604 -7.604,-7.604 z m -7.604,92.154 c 0,21.609 -17.58,39.19 -39.19,39.19 h -83.323 c -21.609,0 -39.19,-17.58 -39.19,-39.19 v -76.946 h 161.703 z"
   id="path14"
   inkscape:connector-curvature="0" />
	</g>
</g>
<g
   id="g24"
   transform="translate(-2.45)">
	<g
   id="g22">
		<path
   d="M 468.325,414.115 H 358.33 c -4.2,0 -7.604,3.405 -7.604,7.604 v 35.884 c 0,11.546 9.394,20.94 20.94,20.94 h 83.323 c 11.547,0 20.94,-9.393 20.94,-20.94 v -35.884 c 0,-4.2 -3.403,-7.604 -7.604,-7.604 z m -7.603,43.487 c 0,3.161 -2.571,5.732 -5.732,5.732 h -83.323 c -3.161,0 -5.732,-2.571 -5.732,-5.732 v -28.28 h 94.788 v 28.28 z"
   id="path20"
   inkscape:connector-curvature="0" />
	</g>
</g>
<g
   id="g30"
   transform="translate(-2.45)">
	<g
   id="g28">
		<path
   d="M 50.67,1.65 H 22.09 C 11.26,1.65 2.45,10.46 2.45,21.29 v 73.67 c 0,10.829 8.809,19.64 19.64,19.64 h 28.58 c 10.83,0 19.64,-8.81 19.64,-19.64 V 21.29 C 70.31,10.46 61.5,1.65 50.67,1.65 Z m 0,97.741 H 22.09 c -2.443,0 -4.432,-1.988 -4.432,-4.432 v -73.67 c 0,-2.443 1.988,-4.432 4.432,-4.432 h 28.58 c 2.443,0 4.432,1.988 4.432,4.432 v 73.67 h 0.001 c -0.001,2.444 -1.989,4.432 -4.433,4.432 z"
   id="path26"
   inkscape:connector-curvature="0" />
	</g>
</g>
<g
   id="g36"
   transform="translate(-2.45)">
	<g
   id="g34">
		<path
   d="M 222.3,1.65 H 119.417 c -22.419,0 -40.66,18.24 -40.66,40.661 v 31.627 c 0,22.421 18.24,40.661 40.66,40.661 h 98.21 c 4.2,0 7.604,-3.405 7.604,-7.604 v -36.83 c 21.426,2.779 39.235,18.373 44.532,39.819 0.838,3.395 3.885,5.781 7.382,5.781 h 24.441 c 4.2,0 7.604,-3.405 7.604,-7.604 V 88.541 C 309.191,40.628 270.212,1.65 222.3,1.65 Z m 71.683,98.907 H 282.83 C 273.468,73.168 247.753,54.513 218.349,54.513 h -0.722 c -4.2,0 -7.604,3.405 -7.604,7.604 v 37.274 h -90.606 c -14.035,0 -25.452,-11.418 -25.452,-25.453 V 42.31 c 0,-14.035 11.418,-25.453 25.452,-25.453 H 222.3 c 39.526,0 71.683,32.157 71.683,71.683 z"
   id="path32"
   inkscape:connector-curvature="0" />
	</g>
</g>
<g
   id="g42"
   transform="translate(-2.45)">
	<g
   id="g40">
		<path
   d="m 190.174,399.431 c 4.2,0 7.604,-3.405 7.604,-7.604 V 127.273 c 0,-4.199 -3.405,-7.604 -7.604,-7.604 -4.2,0 -7.604,3.405 -7.604,7.604 V 312.014 H 136.387 V 127.273 c 0,-4.199 -3.404,-7.604 -7.604,-7.604 -4.2,0 -7.604,3.405 -7.604,7.604 v 377.123 c 0,4.199 3.404,7.604 7.604,7.604 h 61.391 c 4.2,0 7.604,-3.405 7.604,-7.604 v -87.221 c 0,-4.199 -3.404,-7.604 -7.604,-7.604 -4.2,0 -7.604,3.405 -7.604,7.604 v 79.618 h -46.183 v -169.57 h 46.183 v 64.605 c 0,4.198 3.403,7.603 7.604,7.603 z"
   id="path38"
   inkscape:connector-curvature="0" />
	</g>
</g>
<g
   id="g44"
   transform="translate(-2.45)">
</g>
<g
   id="g46"
   transform="translate(-2.45)">
</g>
<g
   id="g48"
   transform="translate(-2.45)">
</g>
<g
   id="g50"
   transform="translate(-2.45)">
</g>
<g
   id="g52"
   transform="translate(-2.45)">
</g>
<g
   id="g54"
   transform="translate(-2.45)">
</g>
<g
   id="g56"
   transform="translate(-2.45)">
</g>
<g
   id="g58"
   transform="translate(-2.45)">
</g>
<g
   id="g60"
   transform="translate(-2.45)">
</g>
<g
   id="g62"
   transform="translate(-2.45)">
</g>
<g
   id="g64"
   transform="translate(-2.45)">
</g>
<g
   id="g66"
   transform="translate(-2.45)">
</g>
<g
   id="g68"
   transform="translate(-2.45)">
</g>
<g
   id="g70"
   transform="translate(-2.45)">
</g>
<g
   id="g72"
   transform="translate(-2.45)">
</g>
<text
   xml:space="preserve"
   style="font-style:normal;font-weight:normal;font-size:40px;line-height:1.25;font-family:sans-serif;letter-spacing:0px;word-spacing:0px;fill:#000000;fill-opacity:1;stroke:none"
   x="544.2619"
   y="514.16949"
   id="text83"><tspan
     sodipodi:role="line"
     x="544.2619"
     y="514.16949"
     id="tspan85"
     style="font-style:normal;font-variant:normal;font-weight:normal;font-stretch:normal;font-size:192px;font-family:'Latin Modern Sans';-inkscape-font-specification:'Latin Modern Sans'">Schreinerei Baumgartner</tspan></text>
<flowRoot
   xml:space="preserve"
   id="flowRoot89"
   style="font-style:normal;font-weight:normal;font-size:40px;line-height:1.25;font-family:sans-serif;letter-spacing:0px;word-spacing:0px;fill:#000000;fill-opacity:1;stroke:none"
   transform="translate(-2.45)"><flowRegion
     id="flowRegion91"><rect
       id="rect93"
       width="4.3389831"
       height="88.94915"
       x="683.38983"
       y="-13.016949" /></flowRegion><flowPara
     id="flowPara95"></flowPara></flowRoot></svg>